<mxfile host="app.diagrams.net" modified="2023-08-13T07:00:03.777Z" agent="Mozilla/5.0 (Macintosh; Intel Mac OS X 10_15_7) AppleWebKit/537.36 (KHTML, like Gecko) Chrome/115.0.0.0 Safari/537.36" etag="mU6Vp6Jf-z5QLMkBsX38" version="21.6.8" type="github">
  <diagram name="第 1 页" id="hchCAPvUlJcS54OczS1m">
    <mxGraphModel dx="920" dy="523" grid="0" gridSize="10" guides="1" tooltips="1" connect="1" arrows="1" fold="1" page="0" pageScale="1" pageWidth="827" pageHeight="1169" math="0" shadow="0">
      <root>
        <mxCell id="0" />
        <mxCell id="1" parent="0" />
      </root>
    </mxGraphModel>
  </diagram>
</mxfile>
